<?xml version="1.0"?>
<svg xmlns="http://www.w3.org/2000/svg" xmlns:xlink="http://www.w3.org/1999/xlink" xmlns:svgjs="http://svgjs.com/svgjs" version="1.1" width="512" height="512" x="0" y="0" viewBox="0 0 24 24" style="enable-background:new 0 0 512 512" xml:space="preserve" class=""><g><link type="text/css" rel="stylesheet" id="dark-mode-custom-link"/><link type="text/css" rel="stylesheet" id="dark-mode-general-link"/><style lang="en" type="text/css" id="dark-mode-custom-style"/><style lang="en" type="text/css" id="dark-mode-native-style"/><g xmlns="http://www.w3.org/2000/svg"><path d="m18.5 23h-15c-1.378 0-2.5-1.122-2.5-2.5v-15c0-1.378 1.122-2.5 2.5-2.5h9c.276 0 .5.224.5.5s-.224.5-.5.5h-9c-.827 0-1.5.673-1.5 1.5v15c0 .827.673 1.5 1.5 1.5h15c.827 0 1.5-.673 1.5-1.5v-9c0-.276.224-.5.5-.5s.5.224.5.5v9c0 1.378-1.122 2.5-2.5 2.5z" fill="#ffffff" data-original="#000000" style="" class=""/></g><g xmlns="http://www.w3.org/2000/svg"><path d="m22.5 9c-.276 0-.5-.224-.5-.5v-6.5h-6.5c-.276 0-.5-.224-.5-.5s.224-.5.5-.5h7c.276 0 .5.224.5.5v7c0 .276-.224.5-.5.5z" fill="#ffffff" data-original="#000000" style="" class=""/></g><g xmlns="http://www.w3.org/2000/svg"><path d="m10.5 14c-.128 0-.256-.049-.354-.146-.195-.195-.195-.512 0-.707l12-12c.195-.195.512-.195.707 0s.195.512 0 .707l-12 12c-.097.097-.225.146-.353.146z" fill="#ffffff" data-original="#000000" style="" class=""/></g></g></svg>
