<?xml version="1.0"?>
<svg xmlns="http://www.w3.org/2000/svg" xmlns:xlink="http://www.w3.org/1999/xlink" xmlns:svgjs="http://svgjs.com/svgjs" version="1.1" width="512" height="512" x="0" y="0" viewBox="0 0 512 512" style="enable-background:new 0 0 512 512" xml:space="preserve" class=""><g><link type="text/css" rel="stylesheet" id="dark-mode-custom-link"/><link type="text/css" rel="stylesheet" id="dark-mode-general-link"/><style lang="en" type="text/css" id="dark-mode-custom-style"/><style lang="en" type="text/css" id="dark-mode-native-style"/><path xmlns="http://www.w3.org/2000/svg" d="m362.667969 0h-213.335938c-82.324219 0-149.332031 66.988281-149.332031 149.332031 0 82.347657 67.007812 149.335938 149.332031 149.335938h213.335938c82.324219 0 149.332031-66.988281 149.332031-149.335938 0-82.34375-67.007812-149.332031-149.332031-149.332031zm-213.335938 234.667969c-47.058593 0-85.332031-38.273438-85.332031-85.335938 0-47.058593 38.273438-85.332031 85.332031-85.332031 47.0625 0 85.335938 38.273438 85.335938 85.332031 0 47.0625-38.273438 85.335938-85.335938 85.335938zm0 0" fill="#00427e" data-original="#000000" style="" class=""/></g></svg>
